<?xml version="1.0" encoding="utf-8"?>
<!-- Generator: Adobe Illustrator 23.0.1, SVG Export Plug-In . SVG Version: 6.00 Build 0)  -->
<svg version="1.1" id="Capa_1" xmlns="http://www.w3.org/2000/svg" xmlns:xlink="http://www.w3.org/1999/xlink" x="0px" y="0px"
	 viewBox="0 0 512 512" style="enable-background:new 0 0 512 512;" xml:space="preserve">
<style type="text/css">
	.st0{fill:#363565;}
</style>
<g>
	<path class="st0" d="M512,169c0-33.4,0-56.8,0-59c0-24.8-20.2-45-45-45h-6v55c0,8.3-6.7,15-15,15s-15-6.7-15-15c0-16.8,0-63.2,0-80
		c0-8.3-6.7-15-15-15s-15,6.7-15,15v25H301v55c0,8.3-6.7,15-15,15s-15-6.7-15-15c0-16.8,0-63.2,0-80c0-8.3-6.7-15-15-15
		s-15,6.7-15,15v25H141v55c0,8.3-6.7,15-15,15s-15-6.7-15-15c0-16.8,0-63.2,0-80c0-8.3-6.7-15-15-15s-15,6.7-15,15v25H45
		C20.2,65,0,85.2,0,110v59H512z"/>
	<path class="st0" d="M0,199v243c0,24.8,20.2,45,45,45h422c24.8,0,45-20.2,45-45c0-6.4,0-146.8,0-243C502.7,199,5.2,199,0,199z
		 M144,407h-32c-8.3,0-15-6.7-15-15s6.7-15,15-15h32c8.3,0,15,6.7,15,15S152.3,407,144,407z M144,343h-32c-8.3,0-15-6.7-15-15
		s6.7-15,15-15h32c8.3,0,15,6.7,15,15S152.3,343,144,343z M144,279h-32c-8.3,0-15-6.7-15-15s6.7-15,15-15h32c8.3,0,15,6.7,15,15
		S152.3,279,144,279z M272,407h-32c-8.3,0-15-6.7-15-15s6.7-15,15-15h32c8.3,0,15,6.7,15,15S280.3,407,272,407z M272,343h-32
		c-8.3,0-15-6.7-15-15s6.7-15,15-15h32c8.3,0,15,6.7,15,15S280.3,343,272,343z M272,279h-32c-8.3,0-15-6.7-15-15s6.7-15,15-15h32
		c8.3,0,15,6.7,15,15S280.3,279,272,279z M400,407h-32c-8.3,0-15-6.7-15-15s6.7-15,15-15h32c8.3,0,15,6.7,15,15S408.3,407,400,407z
		 M400,343h-32c-8.3,0-15-6.7-15-15s6.7-15,15-15h32c8.3,0,15,6.7,15,15S408.3,343,400,343z M400,279h-32c-8.3,0-15-6.7-15-15
		s6.7-15,15-15h32c8.3,0,15,6.7,15,15S408.3,279,400,279z"/>
</g>
</svg>
