<svg id="Capa_1" enable-background="new 0 0 512.021 512.021" height="512" viewBox="0 0 512.021 512.021" width="512" xmlns="http://www.w3.org/2000/svg"><g><path d="m271.01 271v-271c-145.16 7.614-263.386 125.839-271 271zm-60-45h-30v-30h30zm-90-90h30v30h-30zm75-6.211 21.211 21.211-81.211 81.211-21.211-21.211z"/><path d="m271.01 301h-179.428c7.31 95.596 83.833 172.119 179.429 179.429v-179.429z"/><path d="m301.01 60c0 3.222 0 455.542 0 452 117.072-7.775 211-108.489 211-227.498 0-119.019-93.9-216.753-211-224.502zm90 211c24.814 0 45 20.186 45 45 0 19.53-12.578 36.024-30 42.237v32.763h-30v-32.763c-17.422-6.213-30-22.707-30-42.237h30c0 8.276 6.724 15 15 15s15-6.724 15-15-6.724-15-15-15c-24.814 0-45-20.186-45-45 0-19.53 12.578-36.024 30-42.237v-32.763h30v32.763c17.422 6.213 30 22.707 30 42.237h-30c0-8.276-6.724-15-15-15s-15 6.724-15 15 6.724 15 15 15z"/></g></svg>