<?xml version="1.0"?>
<svg xmlns="http://www.w3.org/2000/svg" xmlns:xlink="http://www.w3.org/1999/xlink" xmlns:svgjs="http://svgjs.com/svgjs" version="1.1" width="512" height="512" x="0" y="0" viewBox="0 0 47 47" style="enable-background:new 0 0 512 512" xml:space="preserve" class=""><g>
<g xmlns="http://www.w3.org/2000/svg">
	<g>
		<path d="M29.289,18.798c-0.745-0.431-1.66-0.434-2.405-0.008l-9.158,5.233c-0.75,0.429-1.214,1.227-1.214,2.092v9.436    c0,1.331,1.079,2.41,2.41,2.41h9.158c1.331,0,2.41-1.079,2.41-2.41V20.883C30.489,20.024,30.031,19.229,29.289,18.798z" fill="#000000" data-original="#000000" style=""/>
		<path d="M12.899,28.164c-0.744-0.435-1.66-0.436-2.405-0.008l-9.279,5.303C0.266,34-0.2,35.113,0.081,36.169    c0.28,1.057,1.236,1.792,2.329,1.792h9.28c1.331,0,2.41-1.079,2.41-2.41v-5.304C14.101,29.39,13.643,28.594,12.899,28.164z" fill="#000000" data-original="#000000" style=""/>
		<path d="M45.799,9.364c-0.744-0.432-1.66-0.434-2.405-0.007l-9.279,5.302c-0.751,0.429-1.215,1.228-1.215,2.093v18.799    c0,1.331,1.079,2.41,2.41,2.41h9.279c1.331,0,2.41-1.079,2.41-2.41V11.449C47,10.59,46.542,9.795,45.799,9.364z" fill="#000000" data-original="#000000" style=""/>
	</g>
</g>
<g xmlns="http://www.w3.org/2000/svg">
</g>
<g xmlns="http://www.w3.org/2000/svg">
</g>
<g xmlns="http://www.w3.org/2000/svg">
</g>
<g xmlns="http://www.w3.org/2000/svg">
</g>
<g xmlns="http://www.w3.org/2000/svg">
</g>
<g xmlns="http://www.w3.org/2000/svg">
</g>
<g xmlns="http://www.w3.org/2000/svg">
</g>
<g xmlns="http://www.w3.org/2000/svg">
</g>
<g xmlns="http://www.w3.org/2000/svg">
</g>
<g xmlns="http://www.w3.org/2000/svg">
</g>
<g xmlns="http://www.w3.org/2000/svg">
</g>
<g xmlns="http://www.w3.org/2000/svg">
</g>
<g xmlns="http://www.w3.org/2000/svg">
</g>
<g xmlns="http://www.w3.org/2000/svg">
</g>
<g xmlns="http://www.w3.org/2000/svg">
</g>
</g></svg>
