<?xml version="1.0" encoding="utf-8"?>
<!-- Generator: Adobe Illustrator 23.0.1, SVG Export Plug-In . SVG Version: 6.00 Build 0)  -->
<svg version="1.1" id="Capa_1" xmlns="http://www.w3.org/2000/svg" xmlns:xlink="http://www.w3.org/1999/xlink" x="0px" y="0px"
	 viewBox="0 0 950 950" style="enable-background:new 0 0 950 950;" xml:space="preserve">
<g>
	<path d="M949.9,741.3c-0.1-2.1-0.1-4.1-0.2-6.2c-0.1-2.1-0.2-4.2-0.2-6.3l-0.1-1.6l0-0.8l0-0.2l0-1.8l0-0.1l0-0.3l-0.2-2.6
		c-0.3-3.5-0.5-7-0.8-10.5l-0.2-2.6l-0.3-3.4c-0.2-2.3-0.4-4.6-0.6-6.8c-0.2-2.3-0.4-4.5-0.7-6.8c-0.1-1.1-0.2-2.3-0.3-3.4
		c-0.1-1-0.3-2.1-0.4-3.1c-1.1-8.2-2.2-16.3-3.6-24.1c-0.7-3.9-1.3-7.7-2-11.5c-0.8-3.7-1.5-7.4-2.3-10.9
		c-1.4-7.1-3.2-13.7-4.6-19.9c-0.4-1.5-0.8-3-1.1-4.5c-0.4-1.5-0.8-2.9-1.2-4.3c-0.8-2.8-1.5-5.4-2.2-7.9c-0.7-2.5-1.3-4.8-2-6.9
		c-0.7-2.1-1.3-4.1-1.9-5.8c-0.8-2.6-1.5-4.7-2.1-6.5c-0.8-2.5-3.5-4-6-3.2L756,625.2c-2.4,0.7-4,3.1-3.5,5.6c0.2,0.9,0.4,2,0.6,3.2
		c0.2,1.2,0.5,2.5,0.8,4c0.3,1.5,0.5,3.1,0.7,4.7c0.3,1.7,0.5,3.5,0.8,5.4c0.1,0.9,0.3,1.9,0.4,2.9c0.1,1,0.2,2,0.3,3.1
		c0.4,4.2,1.1,8.7,1.4,13.5c0.2,2.4,0.4,4.9,0.6,7.4c0.2,2.5,0.2,5.1,0.4,7.7c0.3,5.2,0.3,10.6,0.4,16.1l0,2l-0.1,1.8
		c0,1.2-0.1,2.4-0.1,3.6c0,1.2-0.1,2.4-0.1,3.6l0,1.8l-0.1,2.6c-0.1,3.5-0.3,7-0.4,10.5l-0.1,2.6l0,0.3l0,0.1c0,0.4,0-3.1,0-1.6
		l0,0.1l0,0.5l-0.1,1c-0.1,1.4-0.2,2.7-0.4,4.1c-0.1,1.4-0.2,2.7-0.4,4.1c-0.2,1.3-0.3,2.7-0.5,4c-0.3,2.7-0.6,5.3-1,7.8
		c-0.4,2.6-0.7,5.1-1.1,7.5c-0.4,2.4-0.8,4.8-1.2,7.2c-0.4,2.3-0.9,4.6-1.3,6.7c-0.5,2.2-0.8,4.3-1.3,6.3c-0.5,2-0.9,3.9-1.3,5.7
		c-0.2,0.9-0.4,1.8-0.6,2.6c-0.2,0.7-0.4,1.4-0.6,2.1c-0.1,0.4-0.2,0.8-0.3,1.2h196.4c2.6,0,4.8-2.1,4.9-4.7c0,0,0,0,0,0
		c0.2-3.7,0.3-7.4,0.5-11.3c0.1-3.8,0.1-7.8,0.2-11.7c0.1-4,0-8,0-12.1C949.9,745.4,949.9,743.4,949.9,741.3z"/>
	<path d="M850.4,440.6c-1.2-1.7-2.4-3.3-3.6-5l-1.8-2.5l-1.9-2.5c-2.5-3.3-5-6.5-7.6-9.8c-2.6-3.2-5.2-6.4-7.8-9.6
		c-1.3-1.6-2.6-3.2-3.9-4.7c-1.4-1.5-2.7-3.1-4-4.6c-1.3-1.5-2.7-3-4-4.6c-1.3-1.5-2.7-3-4-4.5c-2.7-2.9-5.4-5.8-8.1-8.6
		c-2.7-2.8-5.4-5.5-8-8.1c-2.6-2.6-5.2-5.2-7.8-7.6c-2.6-2.4-5.1-4.8-7.5-7c-2.4-2.3-4.9-4.3-7.2-6.4c-2.3-2-4.5-4-6.7-5.8
		c-2.2-1.8-4.2-3.5-6.2-5.1c-1.9-1.6-3.7-3.1-5.4-4.4c-1.7-1.4-3.3-2.6-4.7-3.7c-2.1-1.6-3.8-2.9-5.2-4c-2.1-1.6-5.1-1.3-6.8,0.8
		L652,437.4c-1.6,2-1.5,4.8,0.3,6.6c0.7,0.7,1.6,1.5,2.5,2.5c0.9,0.9,1.9,1.9,3,3c1.1,1.1,2.2,2.3,3.4,3.6c1.2,1.3,2.5,2.6,3.9,4.1
		c1.3,1.5,2.7,3,4.1,4.7c1.4,1.6,3,3.3,4.5,5.1c1.5,1.8,3,3.7,4.6,5.6c1.6,1.9,3.2,3.9,4.8,6c1.6,2.1,3.3,4.1,4.9,6.3
		c1.6,2.2,3.2,4.4,4.9,6.7c0.8,1.1,1.6,2.3,2.4,3.4c0.8,1.2,1.6,2.3,2.4,3.5c0.8,1.2,1.6,2.3,2.4,3.5c0.8,1.2,1.5,2.4,2.3,3.6
		c1.5,2.4,3.1,4.8,4.6,7.3c1.5,2.5,2.9,4.9,4.4,7.4l1.1,1.8l1,1.9c0.7,1.2,1.5,2.5,2.2,3.7"/>
	<path d="M715.6,527.5c0.6,1.7,1.3,3.2,1.8,4.6c0.5,1.6,1,3,1.4,4.2c0.9,2.7,3.9,4.1,6.5,3l135.6-66.8c2.6-1.1,3.8-4.1,2.6-6.7
		c-0.5-1.1-1.2-2.5-1.9-4c-0.7-1.4-1.4-3-2.2-4.7c-1-2.1-2.2-4.4-3.4-6.9c-1.2-2.5-2.6-4.4-3.9-7.1c-1.1-1.4-1.3-2.3-2.3-3.5"/>
	<path d="M716.3,530.3"/>
	<path d="M459.8,348.7c1.3,0.2,2.8,0.4,4.3,0.6c1.6,0.3,80.1,26.6,81.9,27c16.8,5.9,34.9,15.1,36.9,15.4c1.8,0.3,11.3,6,13.2,6.4
		l31.5-132c-2.7-0.4-14.4-4-17-4.4c-1.8-0.3-17.3-6-19.1-6.2c-1.8-0.2-73.5-17-75.3-17.2c-3.4-0.4-6.8-0.8-10-1.2
		c-3.2-0.3-6.4-0.5-9.4-0.8c-3-0.2-5.9-0.5-8.6-0.7c-2.7-0.1-5.3-0.3-7.8-0.4c-2.4-0.1-4.7-0.2-6.8-0.3c-2.1,0-4-0.1-5.8-0.1
		c-2.5,0-4.5-0.1-6.2-0.1c-2.7,0-4.9,2-5,4.7l-5,103.6c-0.1,2.6,1.7,4.8,4.3,5.1C457.1,348.4,458.4,348.6,459.8,348.7z"/>
	<path d="M606,405.8c1.5,1.1,2.8,2.1,4.2,3c1.3,0.9,2.5,1.8,3.7,2.6c0.5,0.3,1.3,0.9,2,1.4c0.7,0.5,1.3,1,1.9,1.4
		c1.3,1,2.5,1.9,3.5,2.6c2.3,1.7,5.5,1.1,7.1-1.3l71-108.2c1.6-2.4,0.8-5.6-1.7-7c-1.1-0.6-2.4-1.4-3.8-2.2
		c-0.7-0.4-1.4-0.8-2.1-1.2c-0.8-0.5-1.6-0.9-2.5-1.4c-2-1.1-4.2-2.3-6.5-3.6c-2.3-1.3-4.8-2.6-7.4-4.1c-2.5-1.3-5.1-2.6-7.9-3.9
		c-2.8-1.3-5.6-2.8-8.6-4.2c-3-1.4-6.1-2.8-9.3-4.3c-3.2-1.5-6.5-2.8-9.9-4.3c-3.4-1.4-6.8-2.9-10.4-4.3c-0.9-0.3-1.8-0.7-2.7-1
		l-30.6,133c1.7,1.1,3.3,2.2,4.9,3.2C602.6,403.5,604.4,404.7,606,405.8z"/>
	<path d="M364.4,348.2c1.4-0.2,2.7-0.4,4.1-0.5c1.3-0.1,2.7-0.3,4-0.4c2.6-0.3,5.2-0.5,7.6-0.8c2.5-0.2,4.9-0.3,7.1-0.5
		c1.1-0.1,2.3-0.2,3.4-0.2c1.1-0.1,2.2-0.2,3.1-0.2c1.9-0.1,3.8-0.1,5.5-0.1c1.7-0.1,3.3-0.1,4.8-0.2c1.8,0,3.5,0,5,0
		c1.7,0,3.1,0,4.4,0c2.8,0,5.1-2.4,4.9-5.3l-6.4-97.6c-0.2-2.8-2.7-4.9-5.5-4.6c-1.3,0.2-2.7,0.3-4.4,0.6c-1.5,0.2-3.2,0.4-5.1,0.6
		c-2.2,0.3-4.6,0.7-7.1,1.1c-2.5,0.4-5.2,0.8-8,1.2c-1.4,0.2-2.8,0.5-4.2,0.7c-1.4,0.3-2.8,0.5-4.3,0.8c-2.9,0.6-5.9,1.1-9.1,1.8
		c-3.1,0.7-6.3,1.4-9.6,2.2c-1.7,0.4-3.3,0.8-5,1.2c-1.7,0.4-3.4,0.9-5.1,1.3c-3.4,0.9-6.9,1.9-10.5,2.8c-3.5,1.1-7.1,2.1-10.8,3.2
		c-1.8,0.6-3.6,1.1-5.5,1.7c-1.8,0.6-3.6,1.2-5.5,1.9c-1.8,0.6-3.7,1.3-5.5,1.9c-1.8,0.6-3.7,1.3-5.5,2c-3.6,1.4-7.3,2.8-11,4.2
		c-3.6,1.4-7.2,3-10.8,4.5c-1.8,0.8-3.6,1.5-5.4,2.3c-1.8,0.8-3.5,1.6-5.3,2.4c-1.7,0.8-3.5,1.6-5.2,2.4c-1.7,0.8-3.4,1.6-5.1,2.5
		c-3.4,1.7-6.7,3.4-9.9,5c-3.3,1.6-6.4,3.4-9.4,5.1c-3.1,1.7-6.1,3.3-8.9,5c-2.9,1.7-5.6,3.4-8.3,4.9c-2.7,1.6-5.2,3.3-7.7,4.8
		c-2.4,1.6-4.8,3.1-7,4.5c-2.2,1.5-4.2,2.9-6.2,4.2c-1.9,1.3-3.7,2.6-5.4,3.7c-1.7,1.2-3.2,2.3-4.5,3.3c-1.8,1.4-3.4,2.5-4.7,3.5
		c-2.1,1.6-2.6,4.5-1.1,6.7l40.5,59.6c1.4,2.1,4.3,2.8,6.5,1.5c1-0.6,2.2-1.3,3.6-2c1.2-0.7,2.5-1.5,4-2.2c1.5-0.8,3.1-1.6,4.8-2.5
		c1.7-0.9,3.5-1.8,5.4-2.8c1.9-0.9,4-1.9,6.1-2.9c2.1-1,4.3-2.1,6.6-3.1c2.3-1,4.7-2.1,7.2-3.2c2.4-1.1,5-2.1,7.6-3.2
		c2.6-1,5.3-2.2,8-3.1c2.7-1,5.5-2,8.4-3c1.4-0.5,2.8-1,4.3-1.4c1.4-0.5,2.9-0.9,4.4-1.4c1.5-0.5,2.9-0.9,4.4-1.4
		c1.5-0.4,3-0.8,4.4-1.3c3-0.8,5.9-1.7,8.9-2.5c3-0.7,6-1.5,9-2.2c1.5-0.4,3-0.7,4.5-1c1.5-0.3,3-0.6,4.5-0.9c1.5-0.3,3-0.6,4.4-0.9
		c1.5-0.3,3-0.5,4.4-0.8c2.9-0.5,5.8-1,8.6-1.5C358.9,349,361.7,348.6,364.4,348.2z"/>
	<path d="M88.2,425.2c-1.1,1.5-2.1,3-3.2,4.5c-1.1,1.5-2.1,3-3.2,4.6c-1.1,1.5-2.1,3.1-3.1,4.7c-2.1,3.1-4.2,6.3-6.2,9.4
		c-2,3.2-3.9,6.4-5.9,9.6l-1.5,2.4l-1.4,2.4c-0.9,1.6-1.8,3.2-2.8,4.8c-3.7,6.4-7,12.8-10.3,19c-1.5,3.1-3,6.2-4.5,9.3
		c-0.7,1.5-1.5,3-2.2,4.5c-0.7,1.5-1.3,3-2,4.4c-1.3,2.9-2.6,5.8-3.8,8.5c-1.2,2.8-2.3,5.5-3.3,8c-1,2.6-2.1,5-3,7.4
		c-0.9,2.4-1.7,4.6-2.5,6.8c-0.8,2.1-1.5,4.1-2.2,5.9c-0.6,1.8-1.2,3.5-1.7,5.1c-0.7,2-1.3,3.8-1.7,5.2c-0.8,2.5,0.4,5.2,2.9,6.2
		l37.7,14.5c2.4,0.9,5.1-0.2,6.2-2.5c0.6-1.1,1.2-2.5,2-4.1c0.6-1.3,1.3-2.7,2.1-4.3c0.8-1.5,1.7-3.2,2.6-5c0.9-1.8,1.9-3.7,2.9-5.7
		c1-2,2.2-4,3.4-6.2c1.2-2.1,2.5-4.4,3.8-6.7c1.4-2.3,2.8-4.6,4.3-7c0.7-1.2,1.5-2.4,2.2-3.7c0.8-1.2,1.6-2.4,2.4-3.7
		c1.6-2.5,3.2-5,4.9-7.6c3.5-5,7-10.3,10.9-15.4c1-1.3,1.9-2.6,2.9-3.9l1.4-1.9l1.5-1.9c2-2.5,4-5.1,6.1-7.6c2.1-2.5,4.2-5,6.3-7.4
		c1.1-1.2,2.1-2.5,3.1-3.7c1.1-1.2,2.2-2.4,3.2-3.6c1.1-1.2,2.1-2.4,3.2-3.5c1.1-1.2,2.1-2.3,3.2-3.4c2.2-2.2,4.3-4.5,6.4-6.6
		c2.1-2.2,4.3-4.2,6.4-6.2c2.1-2,4.1-4,6.2-5.9c2-1.9,4-3.7,6-5.4c1.9-1.8,3.9-3.3,5.7-4.9c1.8-1.6,3.6-3,5.2-4.5
		c1.6-1.3,3.2-2.5,4.6-3.7c1.4-1.2,2.8-2.2,4.1-3.2c0.6-0.5,1.4-1,2-1.5c0.7-0.5,1.3-1,1.9-1.5c1.3-1,2.5-1.9,3.5-2.7
		c2.3-1.7,2.6-5,0.8-7.1l-42.9-50.3c-1.8-2.2-5.1-2.3-7.2-0.4c-0.9,0.9-2,1.9-3.2,3.1c-0.6,0.5-1.1,1.1-1.7,1.7
		c-0.6,0.6-1.2,1.2-2,1.9c-1.5,1.5-3.1,3.1-4.8,4.8c-1.7,1.7-3.5,3.5-5.4,5.5c-1.8,1.9-3.6,3.9-5.6,6c-1.9,2.1-4,4.2-6,6.6
		c-2,2.3-4.1,4.7-6.2,7.2c-2.2,2.4-4.2,5.1-6.4,7.7c-2.1,2.7-4.4,5.3-6.5,8.2c-2.1,2.8-4.3,5.7-6.5,8.6
		C90.3,422.2,89.2,423.7,88.2,425.2z"/>
	<path d="M10.2,601.6c-0.3,1.2-0.5,2.7-0.9,4.3c-0.3,1.5-0.6,3.2-1,5c-0.4,1.9-0.7,4-1.1,6.3c-0.4,2.3-0.8,4.7-1.2,7.2
		c-0.2,1.3-0.4,2.6-0.6,3.9c-0.2,1.3-0.4,2.6-0.5,4c-0.7,5.5-1.6,11.3-2.2,17.6c-0.3,3.1-0.6,6.3-1,9.6c-0.3,3.3-0.4,6.6-0.7,10.1
		c-0.5,6.8-0.6,13.9-0.9,21L0,693.2l0,2.7c0,1.8,0,3.6,0,5.4c0,1.8,0,3.6,0,5.4l0,2.7l0.1,2.7c0.1,3.6,0.3,7.2,0.4,10.8l0.1,2.7
		l0,0.9l0,0.7l0.1,1.3c0.1,1.7,0.3,3.5,0.4,5.2s0.3,3.4,0.4,5.1c0.2,1.8,0.3,3.5,0.5,5.3c0.2,1.8,0.3,3.5,0.5,5.2
		c0.1,0.9,0.2,1.7,0.3,2.6c0.1,0.8,0.2,1.7,0.3,2.5c0.4,3.3,0.8,6.6,1.3,9.9c0.5,3.2,1,6.4,1.4,9.4c0.4,3.1,1,6,1.5,8.9
		c0,0.2,0.1,0.5,0.1,0.7c0.4,2.3,2.5,4,4.8,4h13.3c2.8,0,5.1-2.4,4.9-5.2c0-0.8-0.1-1.5-0.1-2.3c-0.2-2.8-0.4-5.6-0.4-8.5
		c-0.1-2.9-0.2-5.9-0.3-9c0-3.1,0-6.2-0.1-9.4c0-0.8,0-1.6,0-2.4c0-0.8,0-1.6,0.1-2.4c0-1.6,0.1-3.2,0.1-4.8c0-1.6,0.1-3.2,0.1-4.9
		c0.1-1.7,0.2-3.4,0.2-5.1c0.1-1.7,0.2-3.5,0.2-5.2l0.1-1.3l0-0.7l0-0.1c0-0.2,0,0.2,0,0.1l0-0.2l0-0.3l0.2-2.5
		c0.3-3.4,0.5-6.7,0.8-10.1l0.2-2.5l0.3-2.5c0.2-1.7,0.4-3.4,0.6-5c0.2-1.7,0.4-3.3,0.6-5l0.3-2.5L34,693c1-6.6,1.9-13,3.1-19.2
		c0.6-3.1,1.1-6.2,1.7-9.1c0.7-3,1.3-5.8,1.9-8.7c1.2-5.6,2.7-10.9,3.9-15.7c0.3-1.2,0.6-2.4,0.9-3.6c0.3-1.1,0.7-2.2,1-3.3
		c0.6-2.1,1.2-4.2,1.8-6.1c0.6-1.9,1.1-3.6,1.6-5.4c0.6-1.8,1.1-3.4,1.6-4.8c0.5-1.6,1-3,1.4-4.2c0.9-2.7-0.7-5.6-3.4-6.3l-33.3-8.9
		C13.5,597.1,10.7,598.8,10.2,601.6z"/>
	<path d="M342.6,728.8c3,10.6,8.2,20,15.1,27.7c17.2,19.4,44.5,28.4,71.2,21c5.1-1.4,10.3-3.6,14.8-6l277.1-151.1l105.5-57.6
		l65.4-35.7c7.6-4.1,7.5-13,3-18c-2.6-3-6.7-4.6-11.6-3.2l-74.6,20.7l-110.1,30.6l-306.9,85.3C354.1,652.9,332.3,691.6,342.6,728.8z
		 M438.8,688c12.6,14.2,11.3,35.9-2.9,48.5c-14.2,12.6-35.9,11.3-48.5-2.9c-12.6-14.2-11.3-35.9,2.9-48.5
		C404.5,672.5,426.2,673.8,438.8,688z"/>
</g>
</svg>
