<?xml version="1.0" encoding="utf-8"?>
<!-- Generator: Adobe Illustrator 23.0.1, SVG Export Plug-In . SVG Version: 6.00 Build 0)  -->
<svg version="1.1" id="Capa_1" xmlns="http://www.w3.org/2000/svg" xmlns:xlink="http://www.w3.org/1999/xlink" x="0px" y="0px"
	 viewBox="0 0 469.3 469.3" style="enable-background:new 0 0 469.3 469.3;" xml:space="preserve">
<style type="text/css">
	.st0{fill:#000;}
</style>
<g>
	<g>
		<g>
			<path class="st0" d="M437.3,384h-74.7c-47.1,0-85.3-38.3-85.3-85.3s38.3-85.3,85.3-85.3h74.7c5.9,0,10.7-4.8,10.7-10.7v-32
				c0-22.4-17.4-40.6-39.3-42.3l-61.3-107c-5.7-9.9-14.8-17-25.8-19.9c-10.9-2.9-22.3-1.4-32.1,4.3L79.6,128H42.7
				C19.1,128,0,147.1,0,170.7v256c0,23.5,19.1,42.7,42.7,42.7h362.7c23.5,0,42.7-19.1,42.7-42.7v-32C448,388.8,443.2,384,437.3,384z
				 M360.7,87.4l23.2,40.6h-93L360.7,87.4z M122,128L300.3,24.2c4.8-2.8,10.5-3.6,15.8-2.1c5.4,1.5,10,5,12.8,9.9l0,0l-164.9,96H122
				z"/>
			<path class="st0" d="M437.3,234.7h-74.7c-35.3,0-64,28.7-64,64s28.7,64,64,64h74.7c17.6,0,32-14.4,32-32v-64
				C469.3,249,455,234.7,437.3,234.7z M362.7,320c-11.8,0-21.3-9.6-21.3-21.3s9.6-21.3,21.3-21.3s21.3,9.6,21.3,21.3
				C384,310.4,374.4,320,362.7,320z"/>
		</g>
	</g>
</g>
</svg>
