<svg width="13" height="12" viewBox="0 0 13 12" fill="none" xmlns="http://www.w3.org/2000/svg">
    <path d="M12.0082 3.00409C12.0082 3.27039 11.9024 3.52579 11.7141 3.71409L7.42409 8.00409L6.00409 9.42409L4.58409 8.00409L0.294092 3.71409C0.105788 3.52579 0 3.27039 0 3.00409C0 2.73779 0.105788 2.4824 0.294092 2.29409C0.482395 2.10579 0.73779 2 1.00409 2C1.27039 2 1.52579 2.10579 1.71409 2.29409L6.00409 6.59409L10.2941 2.29409C10.4824 2.10579 10.7378 2 11.0041 2C11.2704 2 11.5258 2.10579 11.7141 2.29409C11.9024 2.4824 12.0082 2.73779 12.0082 3.00409Z" fill="#363565"/>
</svg>