<?xml version="1.0" standalone="no"?>
<!DOCTYPE svg PUBLIC "-//W3C//DTD SVG 20010904//EN"
 "http://www.w3.org/TR/2001/REC-SVG-20010904/DTD/svg10.dtd">
<svg version="1.0" xmlns="http://www.w3.org/2000/svg"
 width="1160.000000pt" height="1160.000000pt" viewBox="0 0 1160.000000 1160.000000"
 preserveAspectRatio="xMidYMid meet">
<metadata>
Created by potrace 1.14, written by Peter Selinger 2001-2017
</metadata>
<g transform="translate(0.000000,1160.000000) scale(0.100000,-0.100000)"
fill="#000000" stroke="none">
<path d="M5518 11596 c-1 -2 -56 -7 -120 -10 -65 -4 -128 -9 -140 -11 -13 -2
-50 -6 -83 -9 -94 -10 -147 -16 -180 -21 -16 -2 -48 -7 -70 -10 -40 -6 -47 -7
-120 -20 -60 -10 -183 -35 -250 -50 -33 -8 -73 -17 -90 -20 -16 -3 -79 -19
-140 -35 -60 -17 -121 -33 -135 -36 -32 -7 -409 -132 -435 -144 -11 -5 -65
-27 -120 -49 -106 -41 -169 -69 -305 -133 -177 -83 -358 -179 -457 -241 -21
-13 -43 -26 -49 -28 -17 -7 -232 -146 -336 -217 -184 -127 -441 -333 -602
-482 -170 -156 -416 -414 -531 -554 -22 -27 -45 -54 -50 -60 -26 -28 -216
-279 -268 -356 -365 -532 -607 -1036 -800 -1665 -42 -135 -96 -357 -132 -544
-18 -90 -46 -265 -51 -316 -3 -33 -8 -62 -9 -66 -2 -3 -7 -39 -10 -80 -4 -40
-9 -85 -11 -99 -25 -155 -25 -872 1 -1077 2 -16 6 -59 9 -98 4 -38 8 -81 11
-95 5 -27 13 -84 20 -146 3 -22 7 -50 10 -64 7 -34 11 -57 20 -110 4 -25 9
-54 11 -65 3 -11 9 -40 14 -65 5 -25 16 -76 25 -115 9 -38 19 -80 21 -91 2
-12 27 -100 54 -195 28 -96 52 -181 55 -189 2 -8 4 -15 5 -15 1 0 3 -7 5 -15
9 -46 142 -395 204 -535 55 -127 212 -435 281 -555 100 -171 281 -445 390
-590 77 -102 219 -278 255 -316 5 -6 39 -44 75 -85 72 -81 311 -322 406 -409
68 -61 92 -82 179 -155 33 -27 62 -52 65 -56 9 -10 254 -195 310 -234 615
-432 1269 -729 1990 -904 69 -17 136 -32 150 -35 213 -40 309 -57 375 -66 44
-6 94 -13 111 -15 17 -2 57 -7 90 -10 32 -3 73 -8 89 -10 202 -27 901 -27
1090 0 17 3 55 7 85 10 30 3 69 7 85 9 17 3 50 7 75 10 165 20 381 61 630 121
26 6 191 52 267 74 76 22 307 100 358 121 17 7 39 16 50 21 11 4 45 18 75 30
30 12 71 29 90 37 19 9 40 17 45 18 27 5 372 175 485 239 34 19 63 35 65 35 7
0 308 185 330 203 6 4 33 22 60 40 28 17 55 35 60 39 6 5 73 54 150 111 147
108 292 227 435 355 205 184 524 525 645 687 16 22 32 42 36 45 39 35 329 455
408 593 143 247 231 416 314 602 61 136 189 458 192 485 1 3 22 70 48 150 60
187 130 456 153 590 2 14 9 48 14 75 13 66 19 102 26 145 3 19 7 46 9 59 2 13
7 45 11 70 3 25 7 57 9 70 3 13 7 58 11 100 3 42 8 84 10 95 25 134 25 888 -1
1081 -2 17 -7 62 -10 100 -3 39 -8 77 -10 85 -2 8 -6 38 -10 65 -6 48 -21 148
-29 190 -3 21 -14 81 -23 125 -2 14 -13 67 -24 119 -12 51 -22 101 -24 110
-51 245 -211 720 -338 1006 -42 93 -207 424 -253 505 -195 344 -462 715 -742
1030 -77 86 -322 332 -403 405 -108 97 -192 170 -213 185 -12 8 -27 20 -34 27
-25 24 -185 147 -267 205 -44 31 -84 61 -90 65 -25 21 -221 147 -335 215 -191
115 -414 231 -600 312 -47 21 -99 44 -116 52 -177 79 -527 198 -774 262 -150
40 -418 98 -490 108 -19 2 -73 11 -120 18 -47 8 -111 17 -144 21 -32 4 -68 8
-80 10 -11 2 -55 6 -96 10 -41 4 -93 9 -115 11 -48 5 -712 14 -717 10z"/>
</g>
</svg>
