<svg xmlns="http://www.w3.org/2000/svg" width="36" height="36" viewBox="0 0 36 36">
  <defs>
    <style>
      .cls-1 {
        fill: #696969;
        fill-rule: evenodd;
      }
    </style>
  </defs>
  <path class="cls-1" d="M8,18.991H27.82a2.316,2.316,0,0,0,1.68-3.912L19.632,4.709A2.319,2.319,0,0,0,16.279,4.7L6.328,15.072A2.316,2.316,0,0,0,8,18.991ZM17.95,7.317l8.24,8.659H9.64Zm8.692,14.462H9.147A3.783,3.783,0,0,0,5.363,25.56V29.2A3.783,3.783,0,0,0,9.147,32.98H26.642A3.783,3.783,0,0,0,30.426,29.2V25.56A3.783,3.783,0,0,0,26.642,21.779ZM27.409,29.2a0.768,0.768,0,0,1-.767.766H9.147A0.768,0.768,0,0,1,8.38,29.2V25.56a0.768,0.768,0,0,1,.767-0.767H26.642a0.768,0.768,0,0,1,.767.767V29.2Z"/>
</svg>
