<svg xmlns="http://www.w3.org/2000/svg" width="36" height="36" viewBox="0 0 36 36">
  <defs>
    <style>
      .cls-1 {
        fill: #696969;
        fill-rule: evenodd;
      }
    </style>
  </defs>
  <path class="cls-1" d="M33.3,13.369V10.644A4.679,4.679,0,0,0,28.627,5.96H6.544a4.679,4.679,0,0,0-4.673,4.684V26.258a4.679,4.679,0,0,0,4.673,4.684H28.627A4.679,4.679,0,0,0,33.3,26.258v-4.01a2.659,2.659,0,0,0,1.558-2.419V15.788A2.659,2.659,0,0,0,33.3,13.369Zm-1.5,6.062H27.069a1.623,1.623,0,0,1,0-3.245H31.8v3.245ZM4.925,26.258V10.644A1.623,1.623,0,0,1,6.544,9.022H7.216V27.88H6.544A1.623,1.623,0,0,1,4.925,26.258Zm23.7,1.623H10.27V9.022H28.627a1.622,1.622,0,0,1,1.619,1.623v2.48H27.069A4.678,4.678,0,0,0,22.4,17.808h0a4.679,4.679,0,0,0,4.673,4.684h3.176v3.766A1.622,1.622,0,0,1,28.627,27.88Z"/>
</svg>
