<svg xmlns="http://www.w3.org/2000/svg" width="36" height="36" viewBox="0 0 36 36">
  <defs>
    <style>
      .cls-1 {
        fill: #696969;
        fill-rule: evenodd;
      }
    </style>
  </defs>
  <path class="cls-1" d="M18.412,3.372a11,11,0,0,0-1.218.068,10.674,10.674,0,0,0-5.169,19.138,5.491,5.491,0,0,1,2.23,4.378V26.773c0,1.256,1.9,1.812,3.876,1.812,2.168,0,4.439-.667,4.439-1.812v0.184a5.5,5.5,0,0,1,2.236-4.383A10.674,10.674,0,0,0,18.412,3.372Zm4.445,16.605a8.753,8.753,0,0,0-3.352,5.229,7.038,7.038,0,0,1-1.375.131,6.312,6.312,0,0,1-.8-0.048,8.862,8.862,0,0,0-3.359-5.309A7.425,7.425,0,0,1,17.551,6.667a7.85,7.85,0,0,1,.861-0.048A7.424,7.424,0,0,1,22.857,19.977Zm-8.574,8.842v3.142c0,2.3,1.861,3.564,4.157,3.564S22.6,34.262,22.6,31.961V28.819a12.626,12.626,0,0,1-4.146.715A12.815,12.815,0,0,1,14.283,28.819Zm5.883,3.142c0,0.982-1.082,1.128-1.726,1.128s-1.726-.147-1.726-1.128v-0.1a14.481,14.481,0,0,0,3.452,0v0.094ZM4.508,25.209l2.292,2.3,3.4-3.411L7.912,21.8ZM31.967,2.288l-2.292-2.3-3.4,3.41,2.292,2.3ZM10.2,3.4L6.8-.008l-2.292,2.3,3.4,3.41ZM26.272,24.095l3.4,3.411,2.292-2.3-3.4-3.411Z"/>
</svg>
