<svg xmlns="http://www.w3.org/2000/svg" width="16" height="24" viewBox="0 0 16 24">
  <defs>
    <style>
      .cls-1 {
        fill: #00a5e2;
        fill-rule: evenodd;
      }
    </style>
  </defs>
  <path id="Shape_25_copy" data-name="Shape 25 copy" class="cls-1" d="M7.691,13.339a6.31,6.31,0,0,0,0-12.62A6.31,6.31,0,0,0,7.691,13.339Zm0-10.374A4.065,4.065,0,1,1,3.678,7.029,4.044,4.044,0,0,1,7.691,2.965Zm0,10.958C3.449,13.922,0,16.753,0,20.233A2.966,2.966,0,0,0,.843,22.5a3.571,3.571,0,0,0,2.561.775c0.577,0,1.2-.052,1.855-0.107,0.779-.065,1.584-0.133,2.432-0.133s1.654,0.067,2.433.133c1.821,0.153,3.394.284,4.416-.669a2.965,2.965,0,0,0,.846-2.271C15.386,16.753,11.934,13.922,7.691,13.922Zm5.347,6.929c-0.306.285-1.651,0.173-2.731,0.082-0.785-.066-1.676-0.14-2.616-0.14s-1.83.075-2.615,0.14c-1.081.09-2.425,0.2-2.731-.082a0.97,0.97,0,0,1-.131-0.619c0-2.241,2.457-4.065,5.477-4.065s5.477,1.823,5.477,4.065A0.969,0.969,0,0,1,13.038,20.852Z"/>
</svg>
