<svg xmlns="http://www.w3.org/2000/svg" width="59" height="64" viewBox="0 0 59 64">
  <path fill="#1f2220" d="M0.453,22.437a135.409,135.409,0,0,0,0,19.119c0.449,5.263,2.48,7.767,6.274,10.937,4.205,3.514,11.292,7.383,16.451,9.56a14.7,14.7,0,0,0,12.547,0c4.757-2.056,11.844-5.8,16.451-9.56,3.826-3.119,5.8-6.407,6.273-10.937a119.368,119.368,0,0,0,0-19.119c-0.55-5.42-2.231-7.875-6.273-10.937a93.4,93.4,0,0,0-16.451-9.56,14.629,14.629,0,0,0-12.547,0A107.25,107.25,0,0,0,6.727,11.5C2.555,14.633.9,17.46,0.453,22.437Z"/>
  <path fill="#8e8e8e" d="M36.583,29.978H31.476v-5.14h-4v5.14H22.365v4.03h5.107v5.14h4v-5.14h5.107v-4.03Z"/>
</svg>
