<svg xmlns="http://www.w3.org/2000/svg" width="36" height="36" viewBox="0 0 36 36">
  <defs>
    <style>
      .cls-1 {
        fill: #696969;
        fill-rule: evenodd;
      }
    </style>
  </defs>
  <path class="cls-1" d="M28.221,19.817a6.671,6.671,0,0,0-2.555.506l-2.829-4.861a6.544,6.544,0,0,0,2.182-4.873,6.646,6.646,0,0,0-13.291,0,6.543,6.543,0,0,0,1.97,4.682l-2.885,4.956a6.58,6.58,0,1,0,4.358,6.182,6.541,6.541,0,0,0-1.915-4.626l2.9-4.985a6.644,6.644,0,0,0,4.162.094L23.293,22a6.531,6.531,0,0,0-1.717,4.411A6.646,6.646,0,1,0,28.221,19.817ZM8.525,30.124a3.715,3.715,0,1,1,3.746-3.715A3.731,3.731,0,0,1,8.525,30.124Zm6.1-19.535A3.746,3.746,0,1,1,18.373,14.3,3.73,3.73,0,0,1,14.628,10.589ZM28.221,30.124a3.715,3.715,0,1,1,3.746-3.715A3.731,3.731,0,0,1,28.221,30.124Z"/>
</svg>
