<svg xmlns="http://www.w3.org/2000/svg" width="25" height="22" viewBox="0 0 25 22">
  <defs>
    <style>
      .cls-1 {
        fill: #00a5e2;
        fill-rule: evenodd;
      }
    </style>
  </defs>
  <path id="Shape_18_copy" data-name="Shape 18 copy" class="cls-1" d="M19.43,11.965a4.81,4.81,0,0,0-1.842.365l-2.04-3.5a4.717,4.717,0,0,0,1.573-3.513,4.791,4.791,0,0,0-9.582,0A4.716,4.716,0,0,0,8.96,8.688L6.881,12.26a4.744,4.744,0,1,0,3.142,4.457,4.715,4.715,0,0,0-1.38-3.335l2.092-3.594a4.791,4.791,0,0,0,3,.068l2.143,3.681a4.708,4.708,0,0,0-1.238,3.18A4.791,4.791,0,1,0,19.43,11.965ZM5.232,19.4a2.678,2.678,0,1,1,2.7-2.678A2.689,2.689,0,0,1,5.232,19.4Zm4.4-14.083a2.7,2.7,0,1,1,2.7,2.678A2.689,2.689,0,0,1,9.631,5.312ZM19.43,19.4a2.678,2.678,0,1,1,2.7-2.678A2.69,2.69,0,0,1,19.43,19.4Z"/>
</svg>
