<svg xmlns="http://www.w3.org/2000/svg" width="36" height="36" viewBox="0 0 36 36">
  <defs>
    <style>
      .cls-1 {
        fill: #696969;
        fill-rule: evenodd;
      }
    </style>
  </defs>
  <path class="cls-1" d="M18.27,6.9a11.523,11.523,0,0,1,9.75,17.685l-0.534.843,0.083,0.994c0.052,0.627.122,1.447,0.194,2.281l-2.343-.351-0.959-.143-0.859.449a11.4,11.4,0,0,1-5.332,1.313,11.536,11.536,0,1,1,0-23.072m0-2.973A14.509,14.509,0,1,0,24.98,31.3L31.054,32.2s-0.357-4.014-.524-6.025A14.5,14.5,0,0,0,18.27,3.93h0Z"/>
</svg>
