<svg xmlns="http://www.w3.org/2000/svg" width="22" height="23" viewBox="0 0 22 23">
  <defs>
    <style>
      .cls-1 {
        fill: #5e615f;
        fill-rule: evenodd;
      }
    </style>
  </defs>
  <path class="cls-1" d="M19.024,11.336a8.407,8.407,0,0,0-.133-1.48l2.26-1.293a17.068,17.068,0,0,0-2.708-4.784L16.19,5.068A8.258,8.258,0,0,0,13.484,3.48v-2.6a16.836,16.836,0,0,0-5.473,0v2.6a8.25,8.25,0,0,0-2.6,1.492L3.186,3.643A17.066,17.066,0,0,0,.4,8.378L2.63,9.711a8.337,8.337,0,0,0-.021,3.133l-2.264,1.3a17.058,17.058,0,0,0,2.707,4.784l2.273-1.3a8.253,8.253,0,0,0,2.686,1.57v2.631a16.837,16.837,0,0,0,5.473,0V19.192a8.252,8.252,0,0,0,2.575-1.474l2.249,1.341A17.062,17.062,0,0,0,21.1,14.324l-2.24-1.335A8.4,8.4,0,0,0,19.024,11.336ZM10.747,16.3a4.968,4.968,0,1,1,4.939-4.968A4.954,4.954,0,0,1,10.747,16.3Z"/>
</svg>
