<svg xmlns="http://www.w3.org/2000/svg" width="21" height="27" viewBox="0 0 21 27">
  <defs>
    <style>
      .cls-1 {
        fill: #00a5e2;
        fill-rule: evenodd;
      }
    </style>
  </defs>
  <path class="cls-1" d="M16.514,11.176H16.453V6.562A5.774,5.774,0,0,0,10.606.877,5.774,5.774,0,0,0,4.76,6.562v4.614H4.7A4.021,4.021,0,0,0,.626,15.135v7.8A4.021,4.021,0,0,0,4.7,26.893H16.514a4.021,4.021,0,0,0,4.072-3.959v-7.8A4.021,4.021,0,0,0,16.514,11.176ZM7.821,6.562a2.787,2.787,0,0,1,5.571,0v4.495H7.821V6.562Zm9.7,16.371a1,1,0,0,1-1.01.982H4.7a1,1,0,0,1-1.01-.982v-7.8a1,1,0,0,1,1.01-.982H16.514a1,1,0,0,1,1.01.982v7.8ZM10.606,15.82a2,2,0,0,0-2.02,1.965,1.917,1.917,0,0,0,.489,1.267v2.662h3.061V19.052a1.916,1.916,0,0,0,.49-1.268A2,2,0,0,0,10.606,15.82Z"/>
</svg>
